<svg width="20" height="20" viewBox="0 0 20 20" fill="none" xmlns="http://www.w3.org/2000/svg">
<mask id="mask0_291_4327" style="mask-type:luminance" maskUnits="userSpaceOnUse" x="0" y="0" width="20" height="20">
<path d="M19.8079 8.14473H10.2131V11.9895H15.7263C15.6377 12.5336 15.4387 13.0689 15.1472 13.5569C14.8133 14.1161 14.4006 14.5419 13.9775 14.8661C12.71 15.8372 11.2325 16.0358 10.2063 16.0358C7.61406 16.0358 5.39924 14.3604 4.54175 12.0838C4.50717 12.0012 4.48423 11.9159 4.45623 11.8315C4.26227 11.2409 4.16336 10.6227 4.16323 10.0006C4.16323 9.33683 4.27532 8.70146 4.47973 8.10135C5.286 5.73449 7.55083 3.96675 10.2082 3.96675C10.7427 3.96675 11.2574 4.03035 11.7455 4.15726C12.6374 4.38859 13.4581 4.83983 14.1336 5.4703L17.051 2.61313C15.2764 0.985967 12.9629 0 10.2033 0C7.99723 0 5.96045 0.687313 4.29133 1.84905C2.93779 2.79105 1.82766 4.05243 1.0784 5.51728C0.381592 6.87558 0 8.38079 0 9.99917C0 11.6176 0.382235 13.1385 1.07905 14.4842V14.4932C1.81508 15.9219 2.89149 17.152 4.19966 18.0897C5.34258 18.9089 7.39187 20 10.2033 20C11.8202 20 13.2531 19.7085 14.5169 19.1622C15.4285 18.7681 16.2362 18.2541 16.9675 17.5935C17.9339 16.7206 18.6906 15.6409 19.2072 14.3988C19.7237 13.1566 20 11.7518 20 10.2289C20 9.51964 19.9287 8.79931 19.8079 8.14473Z" fill="white"/>
</mask>
<g mask="url(#mask0_291_4327)">
<g filter="url(#filter0_f_291_4327)">
<path d="M-0.152344 10.0674C-0.14177 11.6603 0.312126 13.3038 0.99915 14.6305V14.6397C1.49563 15.6032 2.17408 16.3643 2.94677 17.1184L7.61411 15.4154C6.73104 14.9668 6.5963 14.692 5.96336 14.1904C5.31648 13.5382 4.83437 12.7894 4.53415 11.9114H4.52201L4.53415 11.9022C4.3366 11.3225 4.31717 10.707 4.30981 10.0674H-0.152344Z" fill="url(#paint0_radial_291_4327)"/>
</g>
<g filter="url(#filter1_f_291_4327)">
<path d="M10.2094 -0.0721436C9.74815 1.54854 9.92448 3.12383 10.2094 4.04044C10.7422 4.04087 11.2554 4.10433 11.7419 4.23088C12.6338 4.4622 13.4545 4.91345 14.1299 5.54392L17.1221 2.6138C15.3495 0.988505 13.2163 -0.0696254 10.2094 -0.0721436Z" fill="url(#paint1_radial_291_4327)"/>
</g>
<g filter="url(#filter2_f_291_4327)">
<path d="M10.1986 -0.0849457C7.93594 -0.0849457 5.84686 0.619995 4.13494 1.81152C3.50129 2.25234 2.91824 2.7627 2.39652 3.3332C2.26049 4.60984 3.41512 6.17879 5.70175 6.16577C6.81116 4.87532 8.45206 4.0403 10.2783 4.0403L10.2833 4.04045L10.2087 -0.084658C10.2053 -0.084658 10.2021 -0.0849457 10.1987 -0.0849457H10.1986Z" fill="url(#paint2_radial_291_4327)"/>
</g>
<g filter="url(#filter3_f_291_4327)">
<path d="M17.6674 10.5296L15.6478 11.9171C15.5592 12.4612 15.36 12.9965 15.0686 13.4846C14.7346 14.0438 14.322 14.4695 13.8988 14.7937C12.634 15.7629 11.1604 15.9624 10.1345 15.9632C9.07411 17.7693 8.8882 18.6739 10.209 20.1314C11.8435 20.1303 13.2924 19.8352 14.5705 19.2827C15.4944 18.8834 16.3129 18.3624 17.054 17.6929C18.0333 16.8083 18.8003 15.7142 19.3238 14.4553C19.8473 13.1964 20.1272 11.773 20.1272 10.2295L17.6674 10.5296Z" fill="url(#paint3_radial_291_4327)"/>
</g>
<g filter="url(#filter4_f_291_4327)">
<path d="M10.0605 7.99924V12.1361H19.7776C19.8631 11.5696 20.1457 10.8364 20.1457 10.2295C20.1457 9.5202 20.0746 8.65389 19.9537 7.99924H10.0605Z" fill="#3086FF"/>
</g>
<g filter="url(#filter5_f_291_4327)">
<path d="M2.44422 3.1871C1.8445 3.84319 1.33223 4.57756 0.926061 5.37171C0.229249 6.73001 -0.152344 8.38127 -0.152344 9.99966C-0.152344 10.0225 -0.150486 10.0448 -0.150272 10.0676C0.158375 10.6593 4.11262 10.546 4.31195 10.0676C4.31167 10.0453 4.30917 10.0235 4.30917 10.0011C4.30917 9.33731 4.42134 8.84807 4.62567 8.24795C4.87788 7.50769 5.27269 6.82606 5.7776 6.23875C5.89205 6.09263 6.19734 5.7785 6.28636 5.59007C6.3203 5.51834 6.22478 5.47805 6.21942 5.4528C6.21349 5.42452 6.08539 5.44726 6.05674 5.42618C5.96564 5.35934 5.78524 5.32444 5.67564 5.29343C5.44151 5.22717 5.05349 5.08097 4.83794 4.92938C4.15663 4.45035 3.09352 3.87809 2.44422 3.1871Z" fill="url(#paint4_radial_291_4327)"/>
</g>
<g filter="url(#filter6_f_291_4327)">
<path d="M4.8529 5.4559C6.43271 6.41287 6.88703 4.97284 7.93743 4.52224L6.11027 0.7332C5.44369 1.01339 4.80809 1.36314 4.21388 1.77672C3.33396 2.38914 2.55691 3.13653 1.91504 3.98695L4.8529 5.4559Z" fill="url(#paint5_radial_291_4327)"/>
</g>
<g filter="url(#filter7_f_291_4327)">
<path d="M5.49558 15.1227C3.37486 15.8883 3.04285 15.9157 2.84766 17.23C3.22183 17.5953 3.62288 17.9316 4.04738 18.2361C5.19022 19.0553 7.38862 20.1464 10.2002 20.1464C10.2034 20.1464 10.2066 20.1461 10.2099 20.1461V15.8899L10.2032 15.8901C9.1504 15.8901 8.30905 15.6136 7.44649 15.1327C7.23379 15.0141 6.84791 15.3325 6.65179 15.1901C6.3813 14.9938 5.73014 15.3592 5.49558 15.1227Z" fill="url(#paint6_radial_291_4327)"/>
</g>
<g opacity="0.5" filter="url(#filter8_f_291_4327)">
<path d="M8.96777 15.7565V20.073C9.36115 20.1191 9.77054 20.147 10.2 20.147C10.6305 20.147 11.047 20.1249 11.4517 20.0842V15.7855C11.0391 15.8555 10.6215 15.8907 10.2031 15.8906C9.77926 15.8906 9.36716 15.8413 8.96777 15.7565Z" fill="url(#paint7_linear_291_4327)"/>
</g>
</g>
<defs>
<filter id="filter0_f_291_4327" x="-0.216423" y="10.0033" width="7.89476" height="7.17922" filterUnits="userSpaceOnUse" color-interpolation-filters="sRGB">
<feFlood flood-opacity="0" result="BackgroundImageFix"/>
<feBlend mode="normal" in="SourceGraphic" in2="BackgroundImageFix" result="shape"/>
<feGaussianBlur stdDeviation="0.0320398" result="effect1_foregroundBlur_291_4327"/>
</filter>
<filter id="filter1_f_291_4327" x="9.8617" y="-0.136223" width="7.32445" height="5.74423" filterUnits="userSpaceOnUse" color-interpolation-filters="sRGB">
<feFlood flood-opacity="0" result="BackgroundImageFix"/>
<feBlend mode="normal" in="SourceGraphic" in2="BackgroundImageFix" result="shape"/>
<feGaussianBlur stdDeviation="0.0320398" result="effect1_foregroundBlur_291_4327"/>
</filter>
<filter id="filter2_f_291_4327" x="2.32166" y="-0.149025" width="8.02562" height="6.37895" filterUnits="userSpaceOnUse" color-interpolation-filters="sRGB">
<feFlood flood-opacity="0" result="BackgroundImageFix"/>
<feBlend mode="normal" in="SourceGraphic" in2="BackgroundImageFix" result="shape"/>
<feGaussianBlur stdDeviation="0.0320398" result="effect1_foregroundBlur_291_4327"/>
</filter>
<filter id="filter3_f_291_4327" x="9.21424" y="10.1655" width="10.9768" height="10.0301" filterUnits="userSpaceOnUse" color-interpolation-filters="sRGB">
<feFlood flood-opacity="0" result="BackgroundImageFix"/>
<feBlend mode="normal" in="SourceGraphic" in2="BackgroundImageFix" result="shape"/>
<feGaussianBlur stdDeviation="0.0320398" result="effect1_foregroundBlur_291_4327"/>
</filter>
<filter id="filter4_f_291_4327" x="9.99647" y="7.93516" width="10.2131" height="4.26498" filterUnits="userSpaceOnUse" color-interpolation-filters="sRGB">
<feFlood flood-opacity="0" result="BackgroundImageFix"/>
<feBlend mode="normal" in="SourceGraphic" in2="BackgroundImageFix" result="shape"/>
<feGaussianBlur stdDeviation="0.0320398" result="effect1_foregroundBlur_291_4327"/>
</filter>
<filter id="filter5_f_291_4327" x="-0.216423" y="3.12302" width="6.57445" height="7.41103" filterUnits="userSpaceOnUse" color-interpolation-filters="sRGB">
<feFlood flood-opacity="0" result="BackgroundImageFix"/>
<feBlend mode="normal" in="SourceGraphic" in2="BackgroundImageFix" result="shape"/>
<feGaussianBlur stdDeviation="0.0320398" result="effect1_foregroundBlur_291_4327"/>
</filter>
<filter id="filter6_f_291_4327" x="1.46463" y="0.282789" width="6.92328" height="5.94515" filterUnits="userSpaceOnUse" color-interpolation-filters="sRGB">
<feFlood flood-opacity="0" result="BackgroundImageFix"/>
<feBlend mode="normal" in="SourceGraphic" in2="BackgroundImageFix" result="shape"/>
<feGaussianBlur stdDeviation="0.225206" result="effect1_foregroundBlur_291_4327"/>
</filter>
<filter id="filter7_f_291_4327" x="2.78358" y="15.0415" width="7.49046" height="5.16893" filterUnits="userSpaceOnUse" color-interpolation-filters="sRGB">
<feFlood flood-opacity="0" result="BackgroundImageFix"/>
<feBlend mode="normal" in="SourceGraphic" in2="BackgroundImageFix" result="shape"/>
<feGaussianBlur stdDeviation="0.0320398" result="effect1_foregroundBlur_291_4327"/>
</filter>
<filter id="filter8_f_291_4327" x="8.90369" y="15.6924" width="2.61253" height="4.51868" filterUnits="userSpaceOnUse" color-interpolation-filters="sRGB">
<feFlood flood-opacity="0" result="BackgroundImageFix"/>
<feBlend mode="normal" in="SourceGraphic" in2="BackgroundImageFix" result="shape"/>
<feGaussianBlur stdDeviation="0.0320398" result="effect1_foregroundBlur_291_4327"/>
</filter>
<radialGradient id="paint0_radial_291_4327" cx="0" cy="0" r="1" gradientTransform="matrix(-0.41559 -9.95994 14.9425 -0.597683 7.52066 16.9682)" gradientUnits="userSpaceOnUse">
<stop offset="0.142" stop-color="#1ABD4D"/>
<stop offset="0.248" stop-color="#6EC30D"/>
<stop offset="0.312" stop-color="#8AC502"/>
<stop offset="0.366" stop-color="#A2C600"/>
<stop offset="0.446" stop-color="#C8C903"/>
<stop offset="0.54" stop-color="#EBCB03"/>
<stop offset="0.616" stop-color="#F7CD07"/>
<stop offset="0.699" stop-color="#FDCD04"/>
<stop offset="0.771" stop-color="#FDCE05"/>
<stop offset="0.861" stop-color="#FFCE0A"/>
</radialGradient>
<radialGradient id="paint1_radial_291_4327" cx="0" cy="0" r="1" gradientUnits="userSpaceOnUse" gradientTransform="translate(16.8421 5.33197) scale(7.05796 8.92431)">
<stop offset="0.408" stop-color="#FB4E5A"/>
<stop offset="1" stop-color="#FF4540"/>
</radialGradient>
<radialGradient id="paint2_radial_291_4327" cx="0" cy="0" r="1" gradientTransform="matrix(-9.88879 5.36244 7.43227 13.1383 12.9869 -1.3768)" gradientUnits="userSpaceOnUse">
<stop offset="0.231" stop-color="#FF4541"/>
<stop offset="0.312" stop-color="#FF4540"/>
<stop offset="0.458" stop-color="#FF4640"/>
<stop offset="0.54" stop-color="#FF473F"/>
<stop offset="0.699" stop-color="#FF5138"/>
<stop offset="0.771" stop-color="#FF5B33"/>
<stop offset="0.861" stop-color="#FF6C29"/>
<stop offset="1" stop-color="#FF8C18"/>
</radialGradient>
<radialGradient id="paint3_radial_291_4327" cx="0" cy="0" r="1" gradientTransform="matrix(-17.9337 -22.9206 -8.64136 6.4813 10.3558 18.837)" gradientUnits="userSpaceOnUse">
<stop offset="0.132" stop-color="#0CBA65"/>
<stop offset="0.21" stop-color="#0BB86D"/>
<stop offset="0.297" stop-color="#09B479"/>
<stop offset="0.396" stop-color="#08AD93"/>
<stop offset="0.477" stop-color="#0AA6A9"/>
<stop offset="0.568" stop-color="#0D9CC6"/>
<stop offset="0.667" stop-color="#1893DD"/>
<stop offset="0.769" stop-color="#258BF1"/>
<stop offset="0.859" stop-color="#3086FF"/>
</radialGradient>
<radialGradient id="paint4_radial_291_4327" cx="0" cy="0" r="1" gradientTransform="matrix(-1.26913 10.7102 15.1251 1.71809 9.33353 1.80389)" gradientUnits="userSpaceOnUse">
<stop offset="0.366" stop-color="#FF4E3A"/>
<stop offset="0.458" stop-color="#FF8A1B"/>
<stop offset="0.54" stop-color="#FFA312"/>
<stop offset="0.616" stop-color="#FFB60C"/>
<stop offset="0.771" stop-color="#FFCD0A"/>
<stop offset="0.861" stop-color="#FECF0A"/>
<stop offset="0.915" stop-color="#FECF08"/>
<stop offset="1" stop-color="#FDCD01"/>
</radialGradient>
<radialGradient id="paint5_radial_291_4327" cx="0" cy="0" r="1" gradientTransform="matrix(-3.66836 3.97226 -11.4433 -10.1304 7.54928 1.69297)" gradientUnits="userSpaceOnUse">
<stop offset="0.316" stop-color="#FF4C3C"/>
<stop offset="0.604" stop-color="#FF692C"/>
<stop offset="0.727" stop-color="#FF7825"/>
<stop offset="0.885" stop-color="#FF8D1B"/>
<stop offset="1" stop-color="#FF9F13"/>
</radialGradient>
<radialGradient id="paint6_radial_291_4327" cx="0" cy="0" r="1" gradientTransform="matrix(-9.88879 -5.36244 7.43227 -13.1383 12.9881 21.3774)" gradientUnits="userSpaceOnUse">
<stop offset="0.231" stop-color="#0FBC5F"/>
<stop offset="0.312" stop-color="#0FBC5F"/>
<stop offset="0.366" stop-color="#0FBC5E"/>
<stop offset="0.458" stop-color="#0FBC5D"/>
<stop offset="0.54" stop-color="#12BC58"/>
<stop offset="0.699" stop-color="#28BF3C"/>
<stop offset="0.771" stop-color="#38C02B"/>
<stop offset="0.861" stop-color="#52C218"/>
<stop offset="0.915" stop-color="#67C30F"/>
<stop offset="1" stop-color="#86C504"/>
</radialGradient>
<linearGradient id="paint7_linear_291_4327" x1="8.96777" y1="17.9517" x2="11.4517" y2="17.9517" gradientUnits="userSpaceOnUse">
<stop stop-color="#0FBC5C"/>
<stop offset="1" stop-color="#0CBA65"/>
</linearGradient>
</defs>
</svg>
