<svg width="42" height="29" viewBox="0 0 42 29" fill="none" xmlns="http://www.w3.org/2000/svg">
<path d="M41.5613 18.4359C41.7272 18.6159 41.8193 18.8517 41.8193 19.0966V27.6834C41.8193 28.2218 41.3829 28.6582 40.8446 28.6582H30.8035C30.5535 28.6582 30.313 28.5622 30.1318 28.3899L16.6581 15.5808C16.0373 14.9906 15.0117 15.4307 15.0117 16.2873V27.6834C15.0117 28.2218 14.5753 28.6582 14.0369 28.6582H0.97478C0.436424 28.6582 0 28.2218 0 27.6834V14.6213C0 14.0829 0.436424 13.6465 0.97478 13.6465H13.6483C14.1866 13.6465 14.623 13.2101 14.623 12.6717V0.97478C14.623 0.436424 15.0595 0 15.5978 0H24.1383C24.4105 0 24.6704 0.113877 24.855 0.314066L41.5613 18.4359Z" fill="#185BF7"/>
</svg>
